<svg version="1.1" xmlns="http://www.w3.org/2000/svg" xmlns:xlink="http://www.w3.org/1999/xlink" width="1356" height="855"><defs><clipPath id="uCSOWyuuZtiQ"><path fill="none" stroke="none" d=" M 0 0 L 1356 0 L 1356 855 L 0 855 L 0 0 Z"/></clipPath></defs><g transform="scale(1,1)" clip-path="url(#uCSOWyuuZtiQ)"><g><rect fill="rgb(255,255,255)" stroke="none" x="0" y="0" width="1356" height="855" fill-opacity="1"/><path fill="none" stroke="rgb(97,97,97)" paint-order="fill stroke markers" d=" M 501.25755195559253 361.7180962862694 L 856.44589291591 361.7180962862694" stroke-opacity="0.8" stroke-linecap="round" stroke-linejoin="round" stroke-miterlimit="10" stroke-width="2.5"/><path fill="none" stroke="rgb(97,97,97)" paint-order="fill stroke markers" d=" M 501.25755195559253 440.64883872189534 L 856.44589291591 440.64883872189534" stroke-opacity="0.8" stroke-linecap="round" stroke-linejoin="round" stroke-miterlimit="10" stroke-width="2.5"/><path fill="rgb(97,97,97)" stroke="none" paint-order="stroke fill markers" d=" M 655.2259625832821 361.7180962862694 C 655.2259625832821 363.92723528559253 653.4351015826053 365.7180962862694 651.2259625832821 365.7180962862694 C 649.016823583959 365.7180962862694 647.2259625832821 363.92723528559253 647.2259625832821 361.7180962862694 C 647.2259625832821 359.5089572869462 649.016823583959 357.7180962862694 651.2259625832821 357.7180962862694 C 653.4351015826053 357.7180962862694 655.2259625832821 359.5089572869462 655.2259625832821 361.7180962862694 Z" fill-opacity="1"/><path fill="none" stroke="rgb(0,0,0)" paint-order="fill stroke markers" d=" M 655.2259625832821 361.7180962862694 C 655.2259625832821 363.92723528559253 653.4351015826053 365.7180962862694 651.2259625832821 365.7180962862694 C 649.016823583959 365.7180962862694 647.2259625832821 363.92723528559253 647.2259625832821 361.7180962862694 C 647.2259625832821 359.5089572869462 649.016823583959 357.7180962862694 651.2259625832821 357.7180962862694 C 653.4351015826053 357.7180962862694 655.2259625832821 359.5089572869462 655.2259625832821 361.7180962862694 Z" stroke-opacity="1" stroke-linecap="round" stroke-linejoin="round" stroke-miterlimit="10"/><text fill="rgb(97,97,97)" stroke="none" font-family="geogebra-sans-serif, sans-serif" font-size="16px" font-style="normal" font-weight="normal" text-decoration="normal" x="655" y="354" text-anchor="start" dominant-baseline="alphabetic" fill-opacity="1">C</text><text fill="none" stroke="rgb(255,255,255)" font-family="geogebra-sans-serif, sans-serif" font-size="16px" font-style="normal" font-weight="normal" text-decoration="normal" x="655" y="354" text-anchor="start" dominant-baseline="alphabetic" stroke-opacity="1" stroke-linejoin="bevel" stroke-miterlimit="10" stroke-width="3">C</text><text fill="rgb(97,97,97)" stroke="none" font-family="geogebra-sans-serif, sans-serif" font-size="16px" font-style="normal" font-weight="normal" text-decoration="normal" x="655" y="354" text-anchor="start" dominant-baseline="alphabetic" fill-opacity="1">C</text><path fill="rgb(97,97,97)" stroke="none" paint-order="stroke fill markers" d=" M 702.5844080446577 361.7180962862694 C 702.5844080446577 363.92723528559253 700.7935470439809 365.7180962862694 698.5844080446577 365.7180962862694 C 696.3752690453346 365.7180962862694 694.5844080446577 363.92723528559253 694.5844080446577 361.7180962862694 C 694.5844080446577 359.5089572869462 696.3752690453346 357.7180962862694 698.5844080446577 357.7180962862694 C 700.7935470439809 357.7180962862694 702.5844080446577 359.5089572869462 702.5844080446577 361.7180962862694 Z" fill-opacity="1"/><path fill="none" stroke="rgb(0,0,0)" paint-order="fill stroke markers" d=" M 702.5844080446577 361.7180962862694 C 702.5844080446577 363.92723528559253 700.7935470439809 365.7180962862694 698.5844080446577 365.7180962862694 C 696.3752690453346 365.7180962862694 694.5844080446577 363.92723528559253 694.5844080446577 361.7180962862694 C 694.5844080446577 359.5089572869462 696.3752690453346 357.7180962862694 698.5844080446577 357.7180962862694 C 700.7935470439809 357.7180962862694 702.5844080446577 359.5089572869462 702.5844080446577 361.7180962862694 Z" stroke-opacity="1" stroke-linecap="round" stroke-linejoin="round" stroke-miterlimit="10"/><text fill="rgb(97,97,97)" stroke="none" font-family="geogebra-sans-serif, sans-serif" font-size="16px" font-style="normal" font-weight="normal" text-decoration="normal" x="703" y="354" text-anchor="start" dominant-baseline="alphabetic" fill-opacity="1">D</text><text fill="none" stroke="rgb(255,255,255)" font-family="geogebra-sans-serif, sans-serif" font-size="16px" font-style="normal" font-weight="normal" text-decoration="normal" x="703" y="354" text-anchor="start" dominant-baseline="alphabetic" stroke-opacity="1" stroke-linejoin="bevel" stroke-miterlimit="10" stroke-width="3">D</text><text fill="rgb(97,97,97)" stroke="none" font-family="geogebra-sans-serif, sans-serif" font-size="16px" font-style="normal" font-weight="normal" text-decoration="normal" x="703" y="354" text-anchor="start" dominant-baseline="alphabetic" fill-opacity="1">D</text><path fill="rgb(97,97,97)" stroke="none" paint-order="stroke fill markers" d=" M 738.1032421406895 361.7180962862694 C 738.1032421406895 363.92723528559253 736.3123811400127 365.7180962862694 734.1032421406895 365.7180962862694 C 731.8941031413664 365.7180962862694 730.1032421406895 363.92723528559253 730.1032421406895 361.7180962862694 C 730.1032421406895 359.5089572869462 731.8941031413664 357.7180962862694 734.1032421406895 357.7180962862694 C 736.3123811400127 357.7180962862694 738.1032421406895 359.5089572869462 738.1032421406895 361.7180962862694 Z" fill-opacity="1"/><path fill="none" stroke="rgb(0,0,0)" paint-order="fill stroke markers" d=" M 738.1032421406895 361.7180962862694 C 738.1032421406895 363.92723528559253 736.3123811400127 365.7180962862694 734.1032421406895 365.7180962862694 C 731.8941031413664 365.7180962862694 730.1032421406895 363.92723528559253 730.1032421406895 361.7180962862694 C 730.1032421406895 359.5089572869462 731.8941031413664 357.7180962862694 734.1032421406895 357.7180962862694 C 736.3123811400127 357.7180962862694 738.1032421406895 359.5089572869462 738.1032421406895 361.7180962862694 Z" stroke-opacity="1" stroke-linecap="round" stroke-linejoin="round" stroke-miterlimit="10"/><text fill="rgb(97,97,97)" stroke="none" font-family="geogebra-sans-serif, sans-serif" font-size="16px" font-style="normal" font-weight="normal" text-decoration="normal" x="738" y="354" text-anchor="start" dominant-baseline="alphabetic" fill-opacity="1">E</text><text fill="none" stroke="rgb(255,255,255)" font-family="geogebra-sans-serif, sans-serif" font-size="16px" font-style="normal" font-weight="normal" text-decoration="normal" x="738" y="354" text-anchor="start" dominant-baseline="alphabetic" stroke-opacity="1" stroke-linejoin="bevel" stroke-miterlimit="10" stroke-width="3">E</text><text fill="rgb(97,97,97)" stroke="none" font-family="geogebra-sans-serif, sans-serif" font-size="16px" font-style="normal" font-weight="normal" text-decoration="normal" x="738" y="354" text-anchor="start" dominant-baseline="alphabetic" fill-opacity="1">E</text><path fill="rgb(97,97,97)" stroke="none" paint-order="stroke fill markers" d=" M 651.2794254615008 440.64883872189534 C 651.2794254615008 442.8579777212185 649.4885644608239 444.64883872189534 647.2794254615008 444.64883872189534 C 645.0702864621776 444.64883872189534 643.2794254615008 442.8579777212185 643.2794254615008 440.64883872189534 C 643.2794254615008 438.4396997225722 645.0702864621776 436.64883872189534 647.2794254615008 436.64883872189534 C 649.4885644608239 436.64883872189534 651.2794254615008 438.4396997225722 651.2794254615008 440.64883872189534 Z" fill-opacity="1"/><path fill="none" stroke="rgb(0,0,0)" paint-order="fill stroke markers" d=" M 651.2794254615008 440.64883872189534 C 651.2794254615008 442.8579777212185 649.4885644608239 444.64883872189534 647.2794254615008 444.64883872189534 C 645.0702864621776 444.64883872189534 643.2794254615008 442.8579777212185 643.2794254615008 440.64883872189534 C 643.2794254615008 438.4396997225722 645.0702864621776 436.64883872189534 647.2794254615008 436.64883872189534 C 649.4885644608239 436.64883872189534 651.2794254615008 438.4396997225722 651.2794254615008 440.64883872189534 Z" stroke-opacity="1" stroke-linecap="round" stroke-linejoin="round" stroke-miterlimit="10"/><text fill="rgb(97,97,97)" stroke="none" font-family="geogebra-sans-serif, sans-serif" font-size="16px" font-style="normal" font-weight="normal" text-decoration="normal" x="651" y="433" text-anchor="start" dominant-baseline="alphabetic" fill-opacity="1">H</text><text fill="none" stroke="rgb(255,255,255)" font-family="geogebra-sans-serif, sans-serif" font-size="16px" font-style="normal" font-weight="normal" text-decoration="normal" x="651" y="433" text-anchor="start" dominant-baseline="alphabetic" stroke-opacity="1" stroke-linejoin="bevel" stroke-miterlimit="10" stroke-width="3">H</text><text fill="rgb(97,97,97)" stroke="none" font-family="geogebra-sans-serif, sans-serif" font-size="16px" font-style="normal" font-weight="normal" text-decoration="normal" x="651" y="433" text-anchor="start" dominant-baseline="alphabetic" fill-opacity="1">H</text><path fill="rgb(97,97,97)" stroke="none" paint-order="stroke fill markers" d=" M 710.4774822882204 440.64883872189534 C 710.4774822882204 442.8579777212185 708.6866212875435 444.64883872189534 706.4774822882204 444.64883872189534 C 704.2683432888972 444.64883872189534 702.4774822882204 442.8579777212185 702.4774822882204 440.64883872189534 C 702.4774822882204 438.4396997225722 704.2683432888972 436.64883872189534 706.4774822882204 436.64883872189534 C 708.6866212875435 436.64883872189534 710.4774822882204 438.4396997225722 710.4774822882204 440.64883872189534 Z" fill-opacity="1"/><path fill="none" stroke="rgb(0,0,0)" paint-order="fill stroke markers" d=" M 710.4774822882204 440.64883872189534 C 710.4774822882204 442.8579777212185 708.6866212875435 444.64883872189534 706.4774822882204 444.64883872189534 C 704.2683432888972 444.64883872189534 702.4774822882204 442.8579777212185 702.4774822882204 440.64883872189534 C 702.4774822882204 438.4396997225722 704.2683432888972 436.64883872189534 706.4774822882204 436.64883872189534 C 708.6866212875435 436.64883872189534 710.4774822882204 438.4396997225722 710.4774822882204 440.64883872189534 Z" stroke-opacity="1" stroke-linecap="round" stroke-linejoin="round" stroke-miterlimit="10"/><text fill="rgb(97,97,97)" stroke="none" font-family="geogebra-sans-serif, sans-serif" font-size="16px" font-style="normal" font-weight="normal" text-decoration="normal" x="710" y="433" text-anchor="start" dominant-baseline="alphabetic" fill-opacity="1">I</text><text fill="none" stroke="rgb(255,255,255)" font-family="geogebra-sans-serif, sans-serif" font-size="16px" font-style="normal" font-weight="normal" text-decoration="normal" x="710" y="433" text-anchor="start" dominant-baseline="alphabetic" stroke-opacity="1" stroke-linejoin="bevel" stroke-miterlimit="10" stroke-width="3">I</text><text fill="rgb(97,97,97)" stroke="none" font-family="geogebra-sans-serif, sans-serif" font-size="16px" font-style="normal" font-weight="normal" text-decoration="normal" x="710" y="433" text-anchor="start" dominant-baseline="alphabetic" fill-opacity="1">I</text><path fill="rgb(97,97,97)" stroke="none" paint-order="stroke fill markers" d=" M 754.8760249082601 440.64883872189534 C 754.8760249082601 442.8579777212185 753.0851639075833 444.64883872189534 750.8760249082601 444.64883872189534 C 748.6668859089369 444.64883872189534 746.8760249082601 442.8579777212185 746.8760249082601 440.64883872189534 C 746.8760249082601 438.4396997225722 748.6668859089369 436.64883872189534 750.8760249082601 436.64883872189534 C 753.0851639075833 436.64883872189534 754.8760249082601 438.4396997225722 754.8760249082601 440.64883872189534 Z" fill-opacity="1"/><path fill="none" stroke="rgb(0,0,0)" paint-order="fill stroke markers" d=" M 754.8760249082601 440.64883872189534 C 754.8760249082601 442.8579777212185 753.0851639075833 444.64883872189534 750.8760249082601 444.64883872189534 C 748.6668859089369 444.64883872189534 746.8760249082601 442.8579777212185 746.8760249082601 440.64883872189534 C 746.8760249082601 438.4396997225722 748.6668859089369 436.64883872189534 750.8760249082601 436.64883872189534 C 753.0851639075833 436.64883872189534 754.8760249082601 438.4396997225722 754.8760249082601 440.64883872189534 Z" stroke-opacity="1" stroke-linecap="round" stroke-linejoin="round" stroke-miterlimit="10"/><text fill="rgb(97,97,97)" stroke="none" font-family="geogebra-sans-serif, sans-serif" font-size="16px" font-style="normal" font-weight="normal" text-decoration="normal" x="755" y="433" text-anchor="start" dominant-baseline="alphabetic" fill-opacity="1">J</text><text fill="none" stroke="rgb(255,255,255)" font-family="geogebra-sans-serif, sans-serif" font-size="16px" font-style="normal" font-weight="normal" text-decoration="normal" x="755" y="433" text-anchor="start" dominant-baseline="alphabetic" stroke-opacity="1" stroke-linejoin="bevel" stroke-miterlimit="10" stroke-width="3">J</text><text fill="rgb(97,97,97)" stroke="none" font-family="geogebra-sans-serif, sans-serif" font-size="16px" font-style="normal" font-weight="normal" text-decoration="normal" x="755" y="433" text-anchor="start" dominant-baseline="alphabetic" fill-opacity="1">J</text><path fill="rgb(97,97,97)" stroke="none" paint-order="stroke fill markers" d=" M 560.5090716605308 361.7180962862694 C 560.5090716605308 363.92723528559253 558.718210659854 365.7180962862694 556.5090716605308 365.7180962862694 C 554.2999326612077 365.7180962862694 552.5090716605308 363.92723528559253 552.5090716605308 361.7180962862694 C 552.5090716605308 359.5089572869462 554.2999326612077 357.7180962862694 556.5090716605308 357.7180962862694 C 558.718210659854 357.7180962862694 560.5090716605308 359.5089572869462 560.5090716605308 361.7180962862694 Z" fill-opacity="1"/><path fill="none" stroke="rgb(0,0,0)" paint-order="fill stroke markers" d=" M 560.5090716605308 361.7180962862694 C 560.5090716605308 363.92723528559253 558.718210659854 365.7180962862694 556.5090716605308 365.7180962862694 C 554.2999326612077 365.7180962862694 552.5090716605308 363.92723528559253 552.5090716605308 361.7180962862694 C 552.5090716605308 359.5089572869462 554.2999326612077 357.7180962862694 556.5090716605308 357.7180962862694 C 558.718210659854 357.7180962862694 560.5090716605308 359.5089572869462 560.5090716605308 361.7180962862694 Z" stroke-opacity="1" stroke-linecap="round" stroke-linejoin="round" stroke-miterlimit="10"/><text fill="rgb(97,97,97)" stroke="none" font-family="geogebra-sans-serif, sans-serif" font-size="16px" font-style="normal" font-weight="normal" text-decoration="normal" x="561" y="354" text-anchor="start" dominant-baseline="alphabetic" fill-opacity="1">At</text><text fill="none" stroke="rgb(255,255,255)" font-family="geogebra-sans-serif, sans-serif" font-size="16px" font-style="normal" font-weight="normal" text-decoration="normal" x="561" y="354" text-anchor="start" dominant-baseline="alphabetic" stroke-opacity="1" stroke-linejoin="bevel" stroke-miterlimit="10" stroke-width="3">At</text><text fill="rgb(97,97,97)" stroke="none" font-family="geogebra-sans-serif, sans-serif" font-size="16px" font-style="normal" font-weight="normal" text-decoration="normal" x="561" y="354" text-anchor="start" dominant-baseline="alphabetic" fill-opacity="1">At</text><path fill="rgb(97,97,97)" stroke="none" paint-order="stroke fill markers" d=" M 773.6220762367213 361.7180962862694 C 773.6220762367213 363.92723528559253 771.8312152360445 365.7180962862694 769.6220762367213 365.7180962862694 C 767.4129372373982 365.7180962862694 765.6220762367213 363.92723528559253 765.6220762367213 361.7180962862694 C 765.6220762367213 359.5089572869462 767.4129372373982 357.7180962862694 769.6220762367213 357.7180962862694 C 771.8312152360445 357.7180962862694 773.6220762367213 359.5089572869462 773.6220762367213 361.7180962862694 Z" fill-opacity="1"/><path fill="none" stroke="rgb(0,0,0)" paint-order="fill stroke markers" d=" M 773.6220762367213 361.7180962862694 C 773.6220762367213 363.92723528559253 771.8312152360445 365.7180962862694 769.6220762367213 365.7180962862694 C 767.4129372373982 365.7180962862694 765.6220762367213 363.92723528559253 765.6220762367213 361.7180962862694 C 765.6220762367213 359.5089572869462 767.4129372373982 357.7180962862694 769.6220762367213 357.7180962862694 C 771.8312152360445 357.7180962862694 773.6220762367213 359.5089572869462 773.6220762367213 361.7180962862694 Z" stroke-opacity="1" stroke-linecap="round" stroke-linejoin="round" stroke-miterlimit="10"/><text fill="rgb(97,97,97)" stroke="none" font-family="geogebra-sans-serif, sans-serif" font-size="16px" font-style="normal" font-weight="normal" text-decoration="normal" x="774" y="354" text-anchor="start" dominant-baseline="alphabetic" fill-opacity="1">Bt</text><text fill="none" stroke="rgb(255,255,255)" font-family="geogebra-sans-serif, sans-serif" font-size="16px" font-style="normal" font-weight="normal" text-decoration="normal" x="774" y="354" text-anchor="start" dominant-baseline="alphabetic" stroke-opacity="1" stroke-linejoin="bevel" stroke-miterlimit="10" stroke-width="3">Bt</text><text fill="rgb(97,97,97)" stroke="none" font-family="geogebra-sans-serif, sans-serif" font-size="16px" font-style="normal" font-weight="normal" text-decoration="normal" x="774" y="354" text-anchor="start" dominant-baseline="alphabetic" fill-opacity="1">Bt</text><path fill="rgb(97,97,97)" stroke="none" paint-order="stroke fill markers" d=" M 532.8833118080616 440.64883872189534 C 532.8833118080616 442.8579777212185 531.0924508073848 444.64883872189534 528.8833118080616 444.64883872189534 C 526.6741728087385 444.64883872189534 524.8833118080616 442.8579777212185 524.8833118080616 440.64883872189534 C 524.8833118080616 438.4396997225722 526.6741728087385 436.64883872189534 528.8833118080616 436.64883872189534 C 531.0924508073848 436.64883872189534 532.8833118080616 438.4396997225722 532.8833118080616 440.64883872189534 Z" fill-opacity="1"/><path fill="none" stroke="rgb(0,0,0)" paint-order="fill stroke markers" d=" M 532.8833118080616 440.64883872189534 C 532.8833118080616 442.8579777212185 531.0924508073848 444.64883872189534 528.8833118080616 444.64883872189534 C 526.6741728087385 444.64883872189534 524.8833118080616 442.8579777212185 524.8833118080616 440.64883872189534 C 524.8833118080616 438.4396997225722 526.6741728087385 436.64883872189534 528.8833118080616 436.64883872189534 C 531.0924508073848 436.64883872189534 532.8833118080616 438.4396997225722 532.8833118080616 440.64883872189534 Z" stroke-opacity="1" stroke-linecap="round" stroke-linejoin="round" stroke-miterlimit="10"/><text fill="rgb(97,97,97)" stroke="none" font-family="geogebra-sans-serif, sans-serif" font-size="16px" font-style="normal" font-weight="normal" text-decoration="normal" x="533" y="433" text-anchor="start" dominant-baseline="alphabetic" fill-opacity="1">Ft</text><text fill="none" stroke="rgb(255,255,255)" font-family="geogebra-sans-serif, sans-serif" font-size="16px" font-style="normal" font-weight="normal" text-decoration="normal" x="533" y="433" text-anchor="start" dominant-baseline="alphabetic" stroke-opacity="1" stroke-linejoin="bevel" stroke-miterlimit="10" stroke-width="3">Ft</text><text fill="rgb(97,97,97)" stroke="none" font-family="geogebra-sans-serif, sans-serif" font-size="16px" font-style="normal" font-weight="normal" text-decoration="normal" x="533" y="433" text-anchor="start" dominant-baseline="alphabetic" fill-opacity="1">Ft</text><path fill="rgb(97,97,97)" stroke="none" paint-order="stroke fill markers" d=" M 799.2745675282997 440.64883872189534 C 799.2745675282997 442.8579777212185 797.4837065276229 444.64883872189534 795.2745675282997 444.64883872189534 C 793.0654285289766 444.64883872189534 791.2745675282997 442.8579777212185 791.2745675282997 440.64883872189534 C 791.2745675282997 438.4396997225722 793.0654285289766 436.64883872189534 795.2745675282997 436.64883872189534 C 797.4837065276229 436.64883872189534 799.2745675282997 438.4396997225722 799.2745675282997 440.64883872189534 Z" fill-opacity="1"/><path fill="none" stroke="rgb(0,0,0)" paint-order="fill stroke markers" d=" M 799.2745675282997 440.64883872189534 C 799.2745675282997 442.8579777212185 797.4837065276229 444.64883872189534 795.2745675282997 444.64883872189534 C 793.0654285289766 444.64883872189534 791.2745675282997 442.8579777212185 791.2745675282997 440.64883872189534 C 791.2745675282997 438.4396997225722 793.0654285289766 436.64883872189534 795.2745675282997 436.64883872189534 C 797.4837065276229 436.64883872189534 799.2745675282997 438.4396997225722 799.2745675282997 440.64883872189534 Z" stroke-opacity="1" stroke-linecap="round" stroke-linejoin="round" stroke-miterlimit="10"/><text fill="rgb(97,97,97)" stroke="none" font-family="geogebra-sans-serif, sans-serif" font-size="16px" font-style="normal" font-weight="normal" text-decoration="normal" x="799" y="433" text-anchor="start" dominant-baseline="alphabetic" fill-opacity="1">Gt</text><text fill="none" stroke="rgb(255,255,255)" font-family="geogebra-sans-serif, sans-serif" font-size="16px" font-style="normal" font-weight="normal" text-decoration="normal" x="799" y="433" text-anchor="start" dominant-baseline="alphabetic" stroke-opacity="1" stroke-linejoin="bevel" stroke-miterlimit="10" stroke-width="3">Gt</text><text fill="rgb(97,97,97)" stroke="none" font-family="geogebra-sans-serif, sans-serif" font-size="16px" font-style="normal" font-weight="normal" text-decoration="normal" x="799" y="433" text-anchor="start" dominant-baseline="alphabetic" fill-opacity="1">Gt</text></g></g></svg>