<svg version="1.1" xmlns="http://www.w3.org/2000/svg" xmlns:xlink="http://www.w3.org/1999/xlink" width="1356" height="855"><defs><clipPath id="XkIfyvOPrwJT"><path fill="none" stroke="none" d=" M 0 0 L 1356 0 L 1356 855 L 0 855 L 0 0 Z"/></clipPath></defs><g transform="scale(1,1)" clip-path="url(#XkIfyvOPrwJT)"><g><rect fill="rgb(255,255,255)" stroke="none" x="0" y="0" width="1356" height="855" fill-opacity="1"/><text fill="rgb(97,97,97)" stroke="none" font-family="geogebra-sans-serif, sans-serif" font-size="16px" font-style="normal" font-weight="normal" text-decoration="normal" x="662" y="380" text-anchor="start" dominant-baseline="alphabetic" fill-opacity="1">lineAB</text><text fill="none" stroke="rgb(255,255,255)" font-family="geogebra-sans-serif, sans-serif" font-size="16px" font-style="normal" font-weight="normal" text-decoration="normal" x="662" y="380" text-anchor="start" dominant-baseline="alphabetic" stroke-opacity="1" stroke-linejoin="bevel" stroke-miterlimit="10" stroke-width="3">lineAB</text><text fill="rgb(97,97,97)" stroke="none" font-family="geogebra-sans-serif, sans-serif" font-size="16px" font-style="normal" font-weight="normal" text-decoration="normal" x="662" y="380" text-anchor="start" dominant-baseline="alphabetic" fill-opacity="1">lineAB</text><path fill="none" stroke="rgb(97,97,97)" paint-order="fill stroke markers" d=" M 485.25755195559253 364.7180962862694 L 840.44589291591 364.7180962862694" stroke-opacity="0.8" stroke-linecap="round" stroke-linejoin="round" stroke-miterlimit="10" stroke-width="2.5"/><text fill="rgb(97,97,97)" stroke="none" font-family="geogebra-sans-serif, sans-serif" font-size="16px" font-style="normal" font-weight="normal" text-decoration="normal" x="662" y="459" text-anchor="start" dominant-baseline="alphabetic" fill-opacity="1">lineFG</text><text fill="none" stroke="rgb(255,255,255)" font-family="geogebra-sans-serif, sans-serif" font-size="16px" font-style="normal" font-weight="normal" text-decoration="normal" x="662" y="459" text-anchor="start" dominant-baseline="alphabetic" stroke-opacity="1" stroke-linejoin="bevel" stroke-miterlimit="10" stroke-width="3">lineFG</text><text fill="rgb(97,97,97)" stroke="none" font-family="geogebra-sans-serif, sans-serif" font-size="16px" font-style="normal" font-weight="normal" text-decoration="normal" x="662" y="459" text-anchor="start" dominant-baseline="alphabetic" fill-opacity="1">lineFG</text><path fill="none" stroke="rgb(97,97,97)" paint-order="fill stroke markers" d=" M 485.25755195559253 443.64883872189534 L 840.44589291591 443.64883872189534" stroke-opacity="0.8" stroke-linecap="round" stroke-linejoin="round" stroke-miterlimit="10" stroke-width="2.5"/><path fill="rgb(97,97,97)" stroke="none" paint-order="stroke fill markers" d=" M 639.2259625832821 364.7180962862694 C 639.2259625832821 366.92723528559253 637.4351015826053 368.7180962862694 635.2259625832821 368.7180962862694 C 633.016823583959 368.7180962862694 631.2259625832821 366.92723528559253 631.2259625832821 364.7180962862694 C 631.2259625832821 362.5089572869462 633.016823583959 360.7180962862694 635.2259625832821 360.7180962862694 C 637.4351015826053 360.7180962862694 639.2259625832821 362.5089572869462 639.2259625832821 364.7180962862694 Z" fill-opacity="1"/><path fill="none" stroke="rgb(0,0,0)" paint-order="fill stroke markers" d=" M 639.2259625832821 364.7180962862694 C 639.2259625832821 366.92723528559253 637.4351015826053 368.7180962862694 635.2259625832821 368.7180962862694 C 633.016823583959 368.7180962862694 631.2259625832821 366.92723528559253 631.2259625832821 364.7180962862694 C 631.2259625832821 362.5089572869462 633.016823583959 360.7180962862694 635.2259625832821 360.7180962862694 C 637.4351015826053 360.7180962862694 639.2259625832821 362.5089572869462 639.2259625832821 364.7180962862694 Z" stroke-opacity="1" stroke-linecap="round" stroke-linejoin="round" stroke-miterlimit="10"/><text fill="rgb(97,97,97)" stroke="none" font-family="geogebra-sans-serif, sans-serif" font-size="16px" font-style="normal" font-weight="normal" text-decoration="normal" x="639" y="357" text-anchor="start" dominant-baseline="alphabetic" fill-opacity="1">C</text><text fill="none" stroke="rgb(255,255,255)" font-family="geogebra-sans-serif, sans-serif" font-size="16px" font-style="normal" font-weight="normal" text-decoration="normal" x="639" y="357" text-anchor="start" dominant-baseline="alphabetic" stroke-opacity="1" stroke-linejoin="bevel" stroke-miterlimit="10" stroke-width="3">C</text><text fill="rgb(97,97,97)" stroke="none" font-family="geogebra-sans-serif, sans-serif" font-size="16px" font-style="normal" font-weight="normal" text-decoration="normal" x="639" y="357" text-anchor="start" dominant-baseline="alphabetic" fill-opacity="1">C</text><path fill="rgb(97,97,97)" stroke="none" paint-order="stroke fill markers" d=" M 686.5844080446577 364.7180962862694 C 686.5844080446577 366.92723528559253 684.7935470439809 368.7180962862694 682.5844080446577 368.7180962862694 C 680.3752690453346 368.7180962862694 678.5844080446577 366.92723528559253 678.5844080446577 364.7180962862694 C 678.5844080446577 362.5089572869462 680.3752690453346 360.7180962862694 682.5844080446577 360.7180962862694 C 684.7935470439809 360.7180962862694 686.5844080446577 362.5089572869462 686.5844080446577 364.7180962862694 Z" fill-opacity="1"/><path fill="none" stroke="rgb(0,0,0)" paint-order="fill stroke markers" d=" M 686.5844080446577 364.7180962862694 C 686.5844080446577 366.92723528559253 684.7935470439809 368.7180962862694 682.5844080446577 368.7180962862694 C 680.3752690453346 368.7180962862694 678.5844080446577 366.92723528559253 678.5844080446577 364.7180962862694 C 678.5844080446577 362.5089572869462 680.3752690453346 360.7180962862694 682.5844080446577 360.7180962862694 C 684.7935470439809 360.7180962862694 686.5844080446577 362.5089572869462 686.5844080446577 364.7180962862694 Z" stroke-opacity="1" stroke-linecap="round" stroke-linejoin="round" stroke-miterlimit="10"/><text fill="rgb(97,97,97)" stroke="none" font-family="geogebra-sans-serif, sans-serif" font-size="16px" font-style="normal" font-weight="normal" text-decoration="normal" x="687" y="357" text-anchor="start" dominant-baseline="alphabetic" fill-opacity="1">D</text><text fill="none" stroke="rgb(255,255,255)" font-family="geogebra-sans-serif, sans-serif" font-size="16px" font-style="normal" font-weight="normal" text-decoration="normal" x="687" y="357" text-anchor="start" dominant-baseline="alphabetic" stroke-opacity="1" stroke-linejoin="bevel" stroke-miterlimit="10" stroke-width="3">D</text><text fill="rgb(97,97,97)" stroke="none" font-family="geogebra-sans-serif, sans-serif" font-size="16px" font-style="normal" font-weight="normal" text-decoration="normal" x="687" y="357" text-anchor="start" dominant-baseline="alphabetic" fill-opacity="1">D</text><path fill="rgb(97,97,97)" stroke="none" paint-order="stroke fill markers" d=" M 722.1032421406895 364.7180962862694 C 722.1032421406895 366.92723528559253 720.3123811400127 368.7180962862694 718.1032421406895 368.7180962862694 C 715.8941031413664 368.7180962862694 714.1032421406895 366.92723528559253 714.1032421406895 364.7180962862694 C 714.1032421406895 362.5089572869462 715.8941031413664 360.7180962862694 718.1032421406895 360.7180962862694 C 720.3123811400127 360.7180962862694 722.1032421406895 362.5089572869462 722.1032421406895 364.7180962862694 Z" fill-opacity="1"/><path fill="none" stroke="rgb(0,0,0)" paint-order="fill stroke markers" d=" M 722.1032421406895 364.7180962862694 C 722.1032421406895 366.92723528559253 720.3123811400127 368.7180962862694 718.1032421406895 368.7180962862694 C 715.8941031413664 368.7180962862694 714.1032421406895 366.92723528559253 714.1032421406895 364.7180962862694 C 714.1032421406895 362.5089572869462 715.8941031413664 360.7180962862694 718.1032421406895 360.7180962862694 C 720.3123811400127 360.7180962862694 722.1032421406895 362.5089572869462 722.1032421406895 364.7180962862694 Z" stroke-opacity="1" stroke-linecap="round" stroke-linejoin="round" stroke-miterlimit="10"/><text fill="rgb(97,97,97)" stroke="none" font-family="geogebra-sans-serif, sans-serif" font-size="16px" font-style="normal" font-weight="normal" text-decoration="normal" x="722" y="357" text-anchor="start" dominant-baseline="alphabetic" fill-opacity="1">E</text><text fill="none" stroke="rgb(255,255,255)" font-family="geogebra-sans-serif, sans-serif" font-size="16px" font-style="normal" font-weight="normal" text-decoration="normal" x="722" y="357" text-anchor="start" dominant-baseline="alphabetic" stroke-opacity="1" stroke-linejoin="bevel" stroke-miterlimit="10" stroke-width="3">E</text><text fill="rgb(97,97,97)" stroke="none" font-family="geogebra-sans-serif, sans-serif" font-size="16px" font-style="normal" font-weight="normal" text-decoration="normal" x="722" y="357" text-anchor="start" dominant-baseline="alphabetic" fill-opacity="1">E</text><path fill="rgb(97,97,97)" stroke="none" paint-order="stroke fill markers" d=" M 635.2794254615008 443.64883872189534 C 635.2794254615008 445.8579777212185 633.4885644608239 447.64883872189534 631.2794254615008 447.64883872189534 C 629.0702864621776 447.64883872189534 627.2794254615008 445.8579777212185 627.2794254615008 443.64883872189534 C 627.2794254615008 441.4396997225722 629.0702864621776 439.64883872189534 631.2794254615008 439.64883872189534 C 633.4885644608239 439.64883872189534 635.2794254615008 441.4396997225722 635.2794254615008 443.64883872189534 Z" fill-opacity="1"/><path fill="none" stroke="rgb(0,0,0)" paint-order="fill stroke markers" d=" M 635.2794254615008 443.64883872189534 C 635.2794254615008 445.8579777212185 633.4885644608239 447.64883872189534 631.2794254615008 447.64883872189534 C 629.0702864621776 447.64883872189534 627.2794254615008 445.8579777212185 627.2794254615008 443.64883872189534 C 627.2794254615008 441.4396997225722 629.0702864621776 439.64883872189534 631.2794254615008 439.64883872189534 C 633.4885644608239 439.64883872189534 635.2794254615008 441.4396997225722 635.2794254615008 443.64883872189534 Z" stroke-opacity="1" stroke-linecap="round" stroke-linejoin="round" stroke-miterlimit="10"/><text fill="rgb(97,97,97)" stroke="none" font-family="geogebra-sans-serif, sans-serif" font-size="16px" font-style="normal" font-weight="normal" text-decoration="normal" x="635" y="436" text-anchor="start" dominant-baseline="alphabetic" fill-opacity="1">H</text><text fill="none" stroke="rgb(255,255,255)" font-family="geogebra-sans-serif, sans-serif" font-size="16px" font-style="normal" font-weight="normal" text-decoration="normal" x="635" y="436" text-anchor="start" dominant-baseline="alphabetic" stroke-opacity="1" stroke-linejoin="bevel" stroke-miterlimit="10" stroke-width="3">H</text><text fill="rgb(97,97,97)" stroke="none" font-family="geogebra-sans-serif, sans-serif" font-size="16px" font-style="normal" font-weight="normal" text-decoration="normal" x="635" y="436" text-anchor="start" dominant-baseline="alphabetic" fill-opacity="1">H</text><path fill="rgb(97,97,97)" stroke="none" paint-order="stroke fill markers" d=" M 694.4774822882204 443.64883872189534 C 694.4774822882204 445.8579777212185 692.6866212875435 447.64883872189534 690.4774822882204 447.64883872189534 C 688.2683432888972 447.64883872189534 686.4774822882204 445.8579777212185 686.4774822882204 443.64883872189534 C 686.4774822882204 441.4396997225722 688.2683432888972 439.64883872189534 690.4774822882204 439.64883872189534 C 692.6866212875435 439.64883872189534 694.4774822882204 441.4396997225722 694.4774822882204 443.64883872189534 Z" fill-opacity="1"/><path fill="none" stroke="rgb(0,0,0)" paint-order="fill stroke markers" d=" M 694.4774822882204 443.64883872189534 C 694.4774822882204 445.8579777212185 692.6866212875435 447.64883872189534 690.4774822882204 447.64883872189534 C 688.2683432888972 447.64883872189534 686.4774822882204 445.8579777212185 686.4774822882204 443.64883872189534 C 686.4774822882204 441.4396997225722 688.2683432888972 439.64883872189534 690.4774822882204 439.64883872189534 C 692.6866212875435 439.64883872189534 694.4774822882204 441.4396997225722 694.4774822882204 443.64883872189534 Z" stroke-opacity="1" stroke-linecap="round" stroke-linejoin="round" stroke-miterlimit="10"/><text fill="rgb(97,97,97)" stroke="none" font-family="geogebra-sans-serif, sans-serif" font-size="16px" font-style="normal" font-weight="normal" text-decoration="normal" x="694" y="436" text-anchor="start" dominant-baseline="alphabetic" fill-opacity="1">I</text><text fill="none" stroke="rgb(255,255,255)" font-family="geogebra-sans-serif, sans-serif" font-size="16px" font-style="normal" font-weight="normal" text-decoration="normal" x="694" y="436" text-anchor="start" dominant-baseline="alphabetic" stroke-opacity="1" stroke-linejoin="bevel" stroke-miterlimit="10" stroke-width="3">I</text><text fill="rgb(97,97,97)" stroke="none" font-family="geogebra-sans-serif, sans-serif" font-size="16px" font-style="normal" font-weight="normal" text-decoration="normal" x="694" y="436" text-anchor="start" dominant-baseline="alphabetic" fill-opacity="1">I</text><path fill="rgb(97,97,97)" stroke="none" paint-order="stroke fill markers" d=" M 738.8760249082601 443.64883872189534 C 738.8760249082601 445.8579777212185 737.0851639075833 447.64883872189534 734.8760249082601 447.64883872189534 C 732.6668859089369 447.64883872189534 730.8760249082601 445.8579777212185 730.8760249082601 443.64883872189534 C 730.8760249082601 441.4396997225722 732.6668859089369 439.64883872189534 734.8760249082601 439.64883872189534 C 737.0851639075833 439.64883872189534 738.8760249082601 441.4396997225722 738.8760249082601 443.64883872189534 Z" fill-opacity="1"/><path fill="none" stroke="rgb(0,0,0)" paint-order="fill stroke markers" d=" M 738.8760249082601 443.64883872189534 C 738.8760249082601 445.8579777212185 737.0851639075833 447.64883872189534 734.8760249082601 447.64883872189534 C 732.6668859089369 447.64883872189534 730.8760249082601 445.8579777212185 730.8760249082601 443.64883872189534 C 730.8760249082601 441.4396997225722 732.6668859089369 439.64883872189534 734.8760249082601 439.64883872189534 C 737.0851639075833 439.64883872189534 738.8760249082601 441.4396997225722 738.8760249082601 443.64883872189534 Z" stroke-opacity="1" stroke-linecap="round" stroke-linejoin="round" stroke-miterlimit="10"/><text fill="rgb(97,97,97)" stroke="none" font-family="geogebra-sans-serif, sans-serif" font-size="16px" font-style="normal" font-weight="normal" text-decoration="normal" x="739" y="436" text-anchor="start" dominant-baseline="alphabetic" fill-opacity="1">J</text><text fill="none" stroke="rgb(255,255,255)" font-family="geogebra-sans-serif, sans-serif" font-size="16px" font-style="normal" font-weight="normal" text-decoration="normal" x="739" y="436" text-anchor="start" dominant-baseline="alphabetic" stroke-opacity="1" stroke-linejoin="bevel" stroke-miterlimit="10" stroke-width="3">J</text><text fill="rgb(97,97,97)" stroke="none" font-family="geogebra-sans-serif, sans-serif" font-size="16px" font-style="normal" font-weight="normal" text-decoration="normal" x="739" y="436" text-anchor="start" dominant-baseline="alphabetic" fill-opacity="1">J</text><path fill="rgb(97,97,97)" stroke="none" paint-order="stroke fill markers" d=" M 544.5090716605308 364.7180962862694 C 544.5090716605308 366.92723528559253 542.718210659854 368.7180962862694 540.5090716605308 368.7180962862694 C 538.2999326612077 368.7180962862694 536.5090716605308 366.92723528559253 536.5090716605308 364.7180962862694 C 536.5090716605308 362.5089572869462 538.2999326612077 360.7180962862694 540.5090716605308 360.7180962862694 C 542.718210659854 360.7180962862694 544.5090716605308 362.5089572869462 544.5090716605308 364.7180962862694 Z" fill-opacity="1"/><path fill="none" stroke="rgb(0,0,0)" paint-order="fill stroke markers" d=" M 544.5090716605308 364.7180962862694 C 544.5090716605308 366.92723528559253 542.718210659854 368.7180962862694 540.5090716605308 368.7180962862694 C 538.2999326612077 368.7180962862694 536.5090716605308 366.92723528559253 536.5090716605308 364.7180962862694 C 536.5090716605308 362.5089572869462 538.2999326612077 360.7180962862694 540.5090716605308 360.7180962862694 C 542.718210659854 360.7180962862694 544.5090716605308 362.5089572869462 544.5090716605308 364.7180962862694 Z" stroke-opacity="1" stroke-linecap="round" stroke-linejoin="round" stroke-miterlimit="10"/><text fill="rgb(97,97,97)" stroke="none" font-family="geogebra-sans-serif, sans-serif" font-size="16px" font-style="normal" font-weight="normal" text-decoration="normal" x="545" y="357" text-anchor="start" dominant-baseline="alphabetic" fill-opacity="1">At</text><text fill="none" stroke="rgb(255,255,255)" font-family="geogebra-sans-serif, sans-serif" font-size="16px" font-style="normal" font-weight="normal" text-decoration="normal" x="545" y="357" text-anchor="start" dominant-baseline="alphabetic" stroke-opacity="1" stroke-linejoin="bevel" stroke-miterlimit="10" stroke-width="3">At</text><text fill="rgb(97,97,97)" stroke="none" font-family="geogebra-sans-serif, sans-serif" font-size="16px" font-style="normal" font-weight="normal" text-decoration="normal" x="545" y="357" text-anchor="start" dominant-baseline="alphabetic" fill-opacity="1">At</text><path fill="rgb(97,97,97)" stroke="none" paint-order="stroke fill markers" d=" M 757.6220762367213 364.7180962862694 C 757.6220762367213 366.92723528559253 755.8312152360445 368.7180962862694 753.6220762367213 368.7180962862694 C 751.4129372373982 368.7180962862694 749.6220762367213 366.92723528559253 749.6220762367213 364.7180962862694 C 749.6220762367213 362.5089572869462 751.4129372373982 360.7180962862694 753.6220762367213 360.7180962862694 C 755.8312152360445 360.7180962862694 757.6220762367213 362.5089572869462 757.6220762367213 364.7180962862694 Z" fill-opacity="1"/><path fill="none" stroke="rgb(0,0,0)" paint-order="fill stroke markers" d=" M 757.6220762367213 364.7180962862694 C 757.6220762367213 366.92723528559253 755.8312152360445 368.7180962862694 753.6220762367213 368.7180962862694 C 751.4129372373982 368.7180962862694 749.6220762367213 366.92723528559253 749.6220762367213 364.7180962862694 C 749.6220762367213 362.5089572869462 751.4129372373982 360.7180962862694 753.6220762367213 360.7180962862694 C 755.8312152360445 360.7180962862694 757.6220762367213 362.5089572869462 757.6220762367213 364.7180962862694 Z" stroke-opacity="1" stroke-linecap="round" stroke-linejoin="round" stroke-miterlimit="10"/><text fill="rgb(97,97,97)" stroke="none" font-family="geogebra-sans-serif, sans-serif" font-size="16px" font-style="normal" font-weight="normal" text-decoration="normal" x="758" y="357" text-anchor="start" dominant-baseline="alphabetic" fill-opacity="1">Bt</text><text fill="none" stroke="rgb(255,255,255)" font-family="geogebra-sans-serif, sans-serif" font-size="16px" font-style="normal" font-weight="normal" text-decoration="normal" x="758" y="357" text-anchor="start" dominant-baseline="alphabetic" stroke-opacity="1" stroke-linejoin="bevel" stroke-miterlimit="10" stroke-width="3">Bt</text><text fill="rgb(97,97,97)" stroke="none" font-family="geogebra-sans-serif, sans-serif" font-size="16px" font-style="normal" font-weight="normal" text-decoration="normal" x="758" y="357" text-anchor="start" dominant-baseline="alphabetic" fill-opacity="1">Bt</text><path fill="rgb(97,97,97)" stroke="none" paint-order="stroke fill markers" d=" M 516.8833118080616 443.64883872189534 C 516.8833118080616 445.8579777212185 515.0924508073848 447.64883872189534 512.8833118080616 447.64883872189534 C 510.6741728087385 447.64883872189534 508.88331180806165 445.8579777212185 508.88331180806165 443.64883872189534 C 508.88331180806165 441.4396997225722 510.6741728087385 439.64883872189534 512.8833118080616 439.64883872189534 C 515.0924508073848 439.64883872189534 516.8833118080616 441.4396997225722 516.8833118080616 443.64883872189534 Z" fill-opacity="1"/><path fill="none" stroke="rgb(0,0,0)" paint-order="fill stroke markers" d=" M 516.8833118080616 443.64883872189534 C 516.8833118080616 445.8579777212185 515.0924508073848 447.64883872189534 512.8833118080616 447.64883872189534 C 510.6741728087385 447.64883872189534 508.88331180806165 445.8579777212185 508.88331180806165 443.64883872189534 C 508.88331180806165 441.4396997225722 510.6741728087385 439.64883872189534 512.8833118080616 439.64883872189534 C 515.0924508073848 439.64883872189534 516.8833118080616 441.4396997225722 516.8833118080616 443.64883872189534 Z" stroke-opacity="1" stroke-linecap="round" stroke-linejoin="round" stroke-miterlimit="10"/><text fill="rgb(97,97,97)" stroke="none" font-family="geogebra-sans-serif, sans-serif" font-size="16px" font-style="normal" font-weight="normal" text-decoration="normal" x="517" y="436" text-anchor="start" dominant-baseline="alphabetic" fill-opacity="1">Ft</text><text fill="none" stroke="rgb(255,255,255)" font-family="geogebra-sans-serif, sans-serif" font-size="16px" font-style="normal" font-weight="normal" text-decoration="normal" x="517" y="436" text-anchor="start" dominant-baseline="alphabetic" stroke-opacity="1" stroke-linejoin="bevel" stroke-miterlimit="10" stroke-width="3">Ft</text><text fill="rgb(97,97,97)" stroke="none" font-family="geogebra-sans-serif, sans-serif" font-size="16px" font-style="normal" font-weight="normal" text-decoration="normal" x="517" y="436" text-anchor="start" dominant-baseline="alphabetic" fill-opacity="1">Ft</text><path fill="rgb(97,97,97)" stroke="none" paint-order="stroke fill markers" d=" M 783.2745675282997 443.64883872189534 C 783.2745675282997 445.8579777212185 781.4837065276229 447.64883872189534 779.2745675282997 447.64883872189534 C 777.0654285289766 447.64883872189534 775.2745675282997 445.8579777212185 775.2745675282997 443.64883872189534 C 775.2745675282997 441.4396997225722 777.0654285289766 439.64883872189534 779.2745675282997 439.64883872189534 C 781.4837065276229 439.64883872189534 783.2745675282997 441.4396997225722 783.2745675282997 443.64883872189534 Z" fill-opacity="1"/><path fill="none" stroke="rgb(0,0,0)" paint-order="fill stroke markers" d=" M 783.2745675282997 443.64883872189534 C 783.2745675282997 445.8579777212185 781.4837065276229 447.64883872189534 779.2745675282997 447.64883872189534 C 777.0654285289766 447.64883872189534 775.2745675282997 445.8579777212185 775.2745675282997 443.64883872189534 C 775.2745675282997 441.4396997225722 777.0654285289766 439.64883872189534 779.2745675282997 439.64883872189534 C 781.4837065276229 439.64883872189534 783.2745675282997 441.4396997225722 783.2745675282997 443.64883872189534 Z" stroke-opacity="1" stroke-linecap="round" stroke-linejoin="round" stroke-miterlimit="10"/><text fill="rgb(97,97,97)" stroke="none" font-family="geogebra-sans-serif, sans-serif" font-size="16px" font-style="normal" font-weight="normal" text-decoration="normal" x="783" y="436" text-anchor="start" dominant-baseline="alphabetic" fill-opacity="1">Gt</text><text fill="none" stroke="rgb(255,255,255)" font-family="geogebra-sans-serif, sans-serif" font-size="16px" font-style="normal" font-weight="normal" text-decoration="normal" x="783" y="436" text-anchor="start" dominant-baseline="alphabetic" stroke-opacity="1" stroke-linejoin="bevel" stroke-miterlimit="10" stroke-width="3">Gt</text><text fill="rgb(97,97,97)" stroke="none" font-family="geogebra-sans-serif, sans-serif" font-size="16px" font-style="normal" font-weight="normal" text-decoration="normal" x="783" y="436" text-anchor="start" dominant-baseline="alphabetic" fill-opacity="1">Gt</text><text fill="rgb(0,0,0)" stroke="none" font-family="geogebra-sans-serif, sans-serif" font-size="16px" font-style="normal" font-weight="normal" text-decoration="normal" x="419" y="110" text-anchor="start" dominant-baseline="alphabetic" fill-opacity="1">1.GeoGebra 바깥으로 내보낼 때, 이후 작업이 용이한 방식으로 할 수 있는지?</text><text fill="rgb(0,0,0)" stroke="none" font-family="geogebra-sans-serif, sans-serif" font-size="16px" font-style="normal" font-weight="normal" text-decoration="normal" x="426" y="167" text-anchor="start" dominant-baseline="alphabetic" fill-opacity="1">2. 증명의 각 단계별로 그림이 있어야 할지?</text></g></g></svg>